<svg width="26" height="25" viewBox="0 0 26 25" fill="none" xmlns="http://www.w3.org/2000/svg">
<g clip-path="url(#clip0_141_211)">
<path d="M10.3648 12.7207C10.6089 12.9648 11.0046 12.9648 11.2487 12.7207L11.6905 12.2789C11.9347 12.0348 11.9347 11.6391 11.6905 11.3949L10.2952 10L11.6901 8.60469C11.9343 8.36055 11.9343 7.96484 11.6901 7.7207L11.2484 7.27891C11.0042 7.03477 10.6085 7.03477 10.3644 7.27891L8.08546 9.55781C7.84132 9.80195 7.84132 10.1977 8.08546 10.4418L10.3648 12.7207ZM14.1151 12.2793L14.5569 12.7211C14.8011 12.9652 15.1968 12.9652 15.4409 12.7211L17.7198 10.4422C17.964 10.198 17.964 9.80234 17.7198 9.5582L15.4409 7.2793C15.1968 7.03516 14.8011 7.03516 14.5569 7.2793L14.1151 7.72109C13.871 7.96523 13.871 8.36094 14.1151 8.60508L15.5101 10L14.1151 11.3953C13.871 11.6395 13.871 12.0352 14.1151 12.2793ZM24.7776 18.75H15.3066C15.2776 19.5238 14.7319 20 14.0276 20H11.6526C10.9226 20 10.3628 19.3176 10.3726 18.75H1.02765C0.683899 18.75 0.402649 19.0312 0.402649 19.375V20C0.402649 21.375 1.52765 22.5 2.90265 22.5H22.9026C24.2776 22.5 25.4026 21.375 25.4026 20V19.375C25.4026 19.0312 25.1214 18.75 24.7776 18.75ZM22.9026 4.375C22.9026 3.34375 22.0589 2.5 21.0276 2.5H4.77765C3.7464 2.5 2.90265 3.34375 2.90265 4.375V17.5H22.9026V4.375ZM20.4026 15H5.40265V5H20.4026V15Z" fill="#282838"/>
</g>
<defs>
<clipPath id="clip0_141_211">
<rect width="25" height="25" fill="white" transform="translate(0.402649)"/>
</clipPath>
</defs>
</svg>
